# WaveFront *.obj file (generated by Autodesk ATF)

mtllib c00151f6-cc74-4c27-8a01-60d9197c95c6.mtl

g Body1

v 55.000000 0.000000 -19.854465
v 11.074138 0.000000 -19.854465
v 11.074138 5.000000 -19.854465
v 55.000000 5.000000 -19.854465
v 55.000000 0.000000 -16.000000
v 55.000000 5.000000 -16.000000
v 11.074138 0.000000 -16.000000
v 11.074138 5.000000 -16.000000
v 11.074138 0.000000 11.942084
v 11.074138 5.000000 11.942084
v 38.000001 0.000000 11.942084
v 38.000001 5.000000 11.942084
v 38.000001 0.000000 15.000000
v 38.000001 5.000000 15.000000
v 11.074138 0.000000 15.000000
v 11.074138 5.000000 15.000000
v 11.074138 0.000000 16.795046
v 11.074138 5.000000 16.795046
v 20.000000 0.000000 60.000001
v 20.000000 5.000000 60.000001
v 15.537069 0.000000 60.922013
v 15.537069 5.000000 60.922013
v 8.620507 0.000000 22.575142
v 8.620507 5.000000 22.575142
v -24.800852 0.000000 22.575142
v -24.800852 5.000000 22.575142
v -48.028752 0.000000 59.851467
v -48.028752 5.000000 59.851467
v -51.000001 0.000000 58.000001
v -51.000001 5.000000 58.000001
v -26.426037 0.000000 18.563502
v -26.426037 5.000000 18.563502
v -26.426037 0.000000 -25.366417
v -26.426037 5.000000 -25.366417
v -47.858363 0.000000 -63.388810
v -47.858363 5.000000 -63.388810
v -45.000001 0.000000 -65.000001
v -45.000001 5.000000 -65.000001
v -23.843407 0.000000 -27.466776
v -23.843407 5.000000 -27.466776
v 9.328348 0.000000 -27.466776
v 9.328348 5.000000 -27.466776
v 42.152368 0.000000 -59.274972
v 42.152368 5.000000 -59.274972
v 44.236919 0.000000 -57.123848
v 44.236919 5.000000 -57.123848
v 11.074138 0.000000 -24.987374
v 11.074138 5.000000 -24.987374
vt -0.000000 0.000000 0.000000
vt 4.392586 0.000000 0.000000
vt -0.000000 0.500000 0.000000
vt 4.392586 0.500000 0.000000
vt -0.000000 0.000000 0.000000
vt 0.385447 0.000000 0.000000
vt -0.000000 0.500000 0.000000
vt 0.385447 0.500000 0.000000
vt 0.000000 0.000000 0.000000
vt 4.392586 0.000000 0.000000
vt 0.000000 0.500000 0.000000
vt 4.392586 0.500000 0.000000
vt 0.000000 0.000000 0.000000
vt 2.794208 0.000000 0.000000
vt 0.000000 0.500000 0.000000
vt 2.794208 0.500000 0.000000
vt -0.000000 0.000000 0.000000
vt 2.692586 0.000000 0.000000
vt -0.000000 0.500000 0.000000
vt 2.692586 0.500000 0.000000
vt -0.000000 0.000000 0.000000
vt 0.305792 0.000000 0.000000
vt -0.000000 0.500000 0.000000
vt 0.305792 0.500000 0.000000
vt 0.000000 0.000000 0.000000
vt 2.692586 0.000000 0.000000
vt 0.000000 0.500000 0.000000
vt 2.692586 0.500000 0.000000
vt 0.000000 0.000000 0.000000
vt 0.179505 0.000000 0.000000
vt 0.000000 0.500000 0.000000
vt 0.179505 0.500000 0.000000
vt -0.000000 0.000000 0.000000
vt 4.411733 0.000000 0.000000
vt -0.000000 0.500000 0.000000
vt 4.411733 0.500000 0.000000
vt 0.000000 0.000000 0.000000
vt 0.455718 0.000000 0.000000
vt -0.000000 0.500000 0.000000
vt 0.455718 0.500000 0.000000
vt 0.000000 0.000000 0.000000
vt 3.896564 0.000000 0.000000
vt 0.000000 0.500000 0.000000
vt 3.896564 0.500000 0.000000
vt 0.000000 0.000000 0.000000
vt 3.342136 0.000000 0.000000
vt 0.000000 0.500000 0.000000
vt 3.342136 0.500000 0.000000
vt 0.000000 0.000000 0.000000
vt 4.392106 0.000000 0.000000
vt 0.000000 0.500000 0.000000
vt 4.392106 0.500000 0.000000
vt 0.000000 0.000000 0.000000
vt 0.350089 0.000000 0.000000
vt 0.000000 0.500000 0.000000
vt 0.350089 0.500000 0.000000
vt 0.000000 0.000000 0.000000
vt 4.646630 0.000000 0.000000
vt 0.000000 0.500000 0.000000
vt 4.646630 0.500000 0.000000
vt 0.000000 0.000000 0.000000
vt 4.392992 0.000000 0.000000
vt 0.000000 0.500000 0.000000
vt 4.392992 0.500000 0.000000
vt 0.000000 0.000000 0.000000
vt 4.364684 0.000000 0.000000
vt 0.000000 0.500000 0.000000
vt 4.364684 0.500000 0.000000
vt 0.000000 0.000000 0.000000
vt 0.328118 0.000000 0.000000
vt 0.000000 0.500000 0.000000
vt 0.328118 0.500000 0.000000
vt 0.000000 0.000000 0.000000
vt 4.308532 0.000000 0.000000
vt 0.000000 0.500000 0.000000
vt 4.308532 0.500000 0.000000
vt 0.000000 0.000000 0.000000
vt 3.317176 0.000000 0.000000
vt 0.000000 0.500000 0.000000
vt 3.317176 0.500000 0.000000
vt 0.000000 0.000000 0.000000
vt 4.570752 0.000000 0.000000
vt 0.000000 0.500000 0.000000
vt 4.570752 0.500000 0.000000
vt 0.000000 0.000000 0.000000
vt 0.299544 0.000000 0.000000
vt 0.000000 0.500000 0.000000
vt 0.299544 0.500000 0.000000
vt 0.000000 0.000000 0.000000
vt 4.617925 0.000000 0.000000
vt 0.000000 0.500000 0.000000
vt 4.617925 0.500000 0.000000
vt 0.000000 0.000000 0.000000
vt 0.513291 0.000000 0.000000
vt 0.000000 0.500000 0.000000
vt 0.513291 0.500000 0.000000
vt -2.294838 0.907414 0.000000
vt -2.542778 0.732835 0.000000
vt -1.781547 0.907414 0.000000
vt -2.542778 -2.584341 0.000000
vt -1.396101 0.907414 0.000000
vt 2.060250 -2.842604 0.000000
vt 1.398108 0.907414 0.000000
vt 2.461414 -2.680085 0.000000
vt 2.461414 0.662051 0.000000
vt -5.508485 4.223692 0.000000
vt -5.723598 4.015237 0.000000
vt -2.332742 -2.842604 0.000000
vt -6.296101 -4.700000 0.000000
vt -6.134982 -4.985836 0.000000
vt 6.003899 -5.300000 0.000000
vt 6.189046 -5.002875 0.000000
vt 6.296101 1.353707 0.000000
vt 6.203899 1.800000 0.000000
vt 1.883404 0.907414 0.000000
vt 1.703899 0.907414 0.000000
vt 1.703899 3.600000 0.000000
vt 1.398108 3.600000 0.000000
vt -1.396101 5.300000 0.000000
vt -1.781547 5.300000 0.000000
vt -0.907414 1.781547 0.000000
vt -0.732835 2.542778 0.000000
vt -0.907414 2.294838 0.000000
vt -4.015237 5.723598 0.000000
vt -4.223692 5.508485 0.000000
vt -5.300000 1.781547 0.000000
vt -0.907414 1.396101 0.000000
vt 2.584341 2.542778 0.000000
vt -5.300000 1.396101 0.000000
vt 2.842604 -2.060250 0.000000
vt -0.907414 -1.398108 0.000000
vt 2.680085 -2.461414 0.000000
vt -0.662051 -2.461414 0.000000
vt -0.907414 -1.703899 0.000000
vt -0.907414 -1.883404 0.000000
vt -3.600000 -1.398108 0.000000
vt -3.600000 -1.703899 0.000000
vt -1.800000 -6.203899 0.000000
vt -1.353707 -6.296101 0.000000
vt 5.002875 -6.189046 0.000000
vt 5.300000 -6.003899 0.000000
vt 2.842604 2.332742 0.000000
vt 4.700000 6.296101 0.000000
vt 4.985836 6.134982 0.000000
vn 0.000000 0.000000 -0.100000
vn 0.000000 0.000000 -0.100000
vn 0.000000 0.000000 -0.100000
vn 0.000000 0.000000 -0.100000
vn 0.100000 0.000000 0.000000
vn 0.100000 0.000000 0.000000
vn 0.100000 0.000000 0.000000
vn 0.100000 0.000000 0.000000
vn 0.000000 -0.000000 0.100000
vn 0.000000 -0.000000 0.100000
vn 0.000000 -0.000000 0.100000
vn 0.000000 -0.000000 0.100000
vn 0.100000 -0.000000 0.000000
vn 0.100000 -0.000000 0.000000
vn 0.100000 -0.000000 0.000000
vn 0.100000 -0.000000 0.000000
vn 0.000000 0.000000 -0.100000
vn 0.000000 0.000000 -0.100000
vn 0.000000 0.000000 -0.100000
vn 0.000000 0.000000 -0.100000
vn 0.100000 0.000000 0.000000
vn 0.100000 0.000000 0.000000
vn 0.100000 0.000000 0.000000
vn 0.100000 0.000000 0.000000
vn 0.000000 -0.000000 0.100000
vn 0.000000 -0.000000 0.100000
vn 0.000000 -0.000000 0.100000
vn 0.000000 -0.000000 0.100000
vn 0.100000 -0.000000 0.000000
vn 0.100000 -0.000000 0.000000
vn 0.100000 -0.000000 0.000000
vn 0.100000 -0.000000 0.000000
vn 0.097932 0.000000 -0.020232
vn 0.097932 0.000000 -0.020232
vn 0.097932 0.000000 -0.020232
vn 0.097932 0.000000 -0.020232
vn 0.020232 -0.000000 0.097932
vn 0.020232 -0.000000 0.097932
vn 0.020232 -0.000000 0.097932
vn 0.020232 -0.000000 0.097932
vn -0.098412 0.000000 0.017750
vn -0.098412 0.000000 0.017750
vn -0.098412 0.000000 0.017750
vn -0.098412 0.000000 0.017750
vn 0.000000 0.000000 0.100000
vn 0.000000 0.000000 0.100000
vn 0.000000 0.000000 0.100000
vn 0.000000 0.000000 0.100000
vn 0.084871 -0.000000 0.052886
vn 0.084871 -0.000000 0.052886
vn 0.084871 -0.000000 0.052886
vn 0.084871 -0.000000 0.052886
vn -0.052886 0.000000 0.084871
vn -0.052886 0.000000 0.084871
vn -0.052886 0.000000 0.084871
vn -0.052886 0.000000 0.084871
vn -0.084871 0.000000 -0.052886
vn -0.084871 0.000000 -0.052886
vn -0.084871 0.000000 -0.052886
vn -0.084871 0.000000 -0.052886
vn -0.100000 0.000000 0.000000
vn -0.100000 0.000000 0.000000
vn -0.100000 0.000000 0.000000
vn -0.100000 0.000000 0.000000
vn -0.087114 0.000000 0.049104
vn -0.087114 0.000000 0.049104
vn -0.087114 0.000000 0.049104
vn -0.087114 0.000000 0.049104
vn -0.049104 0.000000 -0.087114
vn -0.049104 0.000000 -0.087114
vn -0.049104 0.000000 -0.087114
vn -0.049104 0.000000 -0.087114
vn 0.087114 0.000000 -0.049104
vn 0.087114 0.000000 -0.049104
vn 0.087114 0.000000 -0.049104
vn 0.087114 0.000000 -0.049104
vn 0.000000 0.000000 -0.100000
vn 0.000000 0.000000 -0.100000
vn 0.000000 0.000000 -0.100000
vn 0.000000 0.000000 -0.100000
vn -0.069591 0.000000 -0.071813
vn -0.069591 0.000000 -0.071813
vn -0.069591 0.000000 -0.071813
vn -0.069591 0.000000 -0.071813
vn 0.071813 0.000000 -0.069591
vn 0.071813 0.000000 -0.069591
vn 0.071813 0.000000 -0.069591
vn 0.071813 0.000000 -0.069591
vn 0.069591 -0.000000 0.071813
vn 0.069591 -0.000000 0.071813
vn 0.069591 -0.000000 0.071813
vn 0.069591 -0.000000 0.071813
vn 0.100000 -0.000000 0.000000
vn 0.100000 -0.000000 0.000000
vn 0.100000 -0.000000 0.000000
vn 0.100000 -0.000000 0.000000
vn 0.000000 0.100000 0.000000
vn 0.000000 0.100000 0.000000
vn 0.000000 0.100000 0.000000
vn 0.000000 0.100000 0.000000
vn 0.000000 0.100000 0.000000
vn 0.000000 0.100000 0.000000
vn 0.000000 0.100000 0.000000
vn 0.000000 0.100000 0.000000
vn 0.000000 0.100000 0.000000
vn 0.000000 0.100000 0.000000
vn 0.000000 0.100000 0.000000
vn 0.000000 0.100000 0.000000
vn 0.000000 0.100000 0.000000
vn 0.000000 0.100000 0.000000
vn 0.000000 0.100000 0.000000
vn 0.000000 0.100000 0.000000
vn 0.000000 0.100000 0.000000
vn 0.000000 0.100000 0.000000
vn 0.000000 0.100000 0.000000
vn 0.000000 0.100000 0.000000
vn 0.000000 0.100000 0.000000
vn 0.000000 0.100000 0.000000
vn 0.000000 0.100000 0.000000
vn 0.000000 0.100000 0.000000
vn 0.000000 -0.100000 0.000000
vn 0.000000 -0.100000 0.000000
vn 0.000000 -0.100000 0.000000
vn 0.000000 -0.100000 0.000000
vn 0.000000 -0.100000 0.000000
vn 0.000000 -0.100000 0.000000
vn 0.000000 -0.100000 0.000000
vn 0.000000 -0.100000 0.000000
vn 0.000000 -0.100000 0.000000
vn 0.000000 -0.100000 0.000000
vn 0.000000 -0.100000 0.000000
vn 0.000000 -0.100000 0.000000
vn 0.000000 -0.100000 0.000000
vn 0.000000 -0.100000 0.000000
vn 0.000000 -0.100000 0.000000
vn 0.000000 -0.100000 0.000000
vn 0.000000 -0.100000 0.000000
vn 0.000000 -0.100000 0.000000
vn 0.000000 -0.100000 0.000000
vn 0.000000 -0.100000 0.000000
vn 0.000000 -0.100000 0.000000
vn 0.000000 -0.100000 0.000000
vn 0.000000 -0.100000 0.000000
vn 0.000000 -0.100000 0.000000
usemtl Steel_-_Satin
f 1/1/1 2/2/2 4/3/3
f 4/3/3 2/2/2 3/4/4
f 5/5/5 1/6/6 6/7/7
f 6/7/7 1/6/6 4/8/8
f 7/9/9 5/10/10 8/11/11
f 8/11/11 5/10/10 6/12/12
f 9/13/13 7/14/14 10/15/15
f 10/15/15 7/14/14 8/16/16
f 11/17/17 9/18/18 12/19/19
f 12/19/19 9/18/18 10/20/20
f 13/21/21 11/22/22 14/23/23
f 14/23/23 11/22/22 12/24/24
f 15/25/25 13/26/26 16/27/27
f 16/27/27 13/26/26 14/28/28
f 17/29/29 15/30/30 18/31/31
f 18/31/31 15/30/30 16/32/32
f 19/33/33 17/34/34 20/35/35
f 20/35/35 17/34/34 18/36/36
f 21/37/37 19/38/38 22/39/39
f 22/39/39 19/38/38 20/40/40
f 23/41/41 21/42/42 24/43/43
f 24/43/43 21/42/42 22/44/44
f 25/45/45 23/46/46 26/47/47
f 26/47/47 23/46/46 24/48/48
f 27/49/49 25/50/50 28/51/51
f 28/51/51 25/50/50 26/52/52
f 29/53/53 27/54/54 30/55/55
f 30/55/55 27/54/54 28/56/56
f 31/57/57 29/58/58 32/59/59
f 32/59/59 29/58/58 30/60/60
f 33/61/61 31/62/62 34/63/63
f 34/63/63 31/62/62 32/64/64
f 35/65/65 33/66/66 36/67/67
f 36/67/67 33/66/66 34/68/68
f 37/69/69 35/70/70 38/71/71
f 38/71/71 35/70/70 36/72/72
f 39/73/73 37/74/74 40/75/75
f 40/75/75 37/74/74 38/76/76
f 41/77/77 39/78/78 42/79/79
f 42/79/79 39/78/78 40/80/80
f 43/81/81 41/82/82 44/83/83
f 44/83/83 41/82/82 42/84/84
f 45/85/85 43/86/86 46/87/87
f 46/87/87 43/86/86 44/88/88
f 47/89/89 45/90/90 48/91/91
f 48/91/91 45/90/90 46/92/92
f 2/93/93 47/94/94 3/95/95
f 3/95/95 47/94/94 48/96/96
f 48/97/97 42/98/98 3/99/99
f 3/99/99 42/98/98 40/100/100
f 3/99/99 40/100/100 8/101/101
f 8/101/101 40/100/100 32/102/102
f 8/101/101 32/102/102 10/103/103
f 10/103/103 32/102/102 26/104/104
f 10/103/103 26/104/104 24/105/105
f 46/106/106 44/107/107 48/97/97
f 48/97/97 44/107/107 42/98/98
f 32/102/102 40/100/100 34/108/108
f 34/108/108 40/100/100 38/109/109
f 34/108/108 38/109/109 36/110/110
f 32/102/102 30/111/111 26/104/104
f 26/104/104 30/111/111 28/112/112
f 22/113/113 20/114/114 24/105/105
f 24/105/105 20/114/114 18/115/115
f 24/105/105 18/115/115 16/116/116
f 14/117/117 12/118/118 16/116/116
f 16/116/116 12/118/118 10/103/103
f 16/116/116 10/103/103 24/105/105
f 6/119/119 4/120/120 8/101/101
f 8/101/101 4/120/120 3/99/99
f 2/121/121 41/122/122 47/123/123
f 47/123/123 41/122/122 43/124/124
f 47/123/123 43/124/124 45/125/125
f 1/126/126 7/127/127 2/121/121
f 2/121/121 7/127/127 39/128/128
f 2/121/121 39/128/128 41/122/122
f 1/126/126 5/129/129 7/127/127
f 39/128/128 7/127/127 31/130/130
f 31/130/130 7/127/127 9/131/131
f 31/130/130 9/131/131 25/132/132
f 25/132/132 9/131/131 23/133/133
f 23/133/133 9/131/131 15/134/134
f 23/133/133 15/134/134 17/135/135
f 9/131/131 11/136/136 15/134/134
f 15/134/134 11/136/136 13/137/137
f 17/135/135 19/138/138 23/133/133
f 23/133/133 19/138/138 21/139/139
f 27/140/140 29/141/141 25/132/132
f 25/132/132 29/141/141 31/130/130
f 31/130/130 33/142/142 39/128/128
f 39/128/128 33/142/142 37/143/143
f 37/143/143 33/142/142 35/144/144

# 48 vertices
# 144 texture params
# 144 normals
# 92 facets

# 1 groups
